<svg xmlns="http://www.w3.org/2000/svg" viewBox="0 0 900 520" role="img" aria-label="Party card table cover art">
  <defs>
    <linearGradient id="bg" x1="0" y1="0" x2="1" y2="1">
      <stop offset="0" stop-color="#171a21"/>
      <stop offset="0.5" stop-color="#4d2c66"/>
      <stop offset="1" stop-color="#f2b84b"/>
    </linearGradient>
    <radialGradient id="spot" cx="50%" cy="48%" r="46%">
      <stop offset="0" stop-color="#fff4c2" stop-opacity="0.42"/>
      <stop offset="1" stop-color="#fff4c2" stop-opacity="0"/>
    </radialGradient>
    <filter id="shadow" x="-30%" y="-30%" width="160%" height="160%">
      <feDropShadow dx="0" dy="18" stdDeviation="18" flood-color="#000" flood-opacity="0.38"/>
    </filter>
  </defs>
  <rect width="900" height="520" fill="url(#bg)"/>
  <rect width="900" height="520" fill="url(#spot)"/>
  <ellipse cx="450" cy="300" rx="330" ry="145" fill="#111318" opacity="0.7"/>
  <g filter="url(#shadow)">
    <rect x="270" y="112" width="170" height="240" rx="18" fill="#0d0f13" stroke="#d9d4c7" stroke-width="5" transform="rotate(-13 355 232)"/>
    <rect x="462" y="92" width="170" height="240" rx="18" fill="#f4f1e8" stroke="#0d0f13" stroke-width="5" transform="rotate(11 547 212)"/>
    <rect x="368" y="178" width="170" height="240" rx="18" fill="#f4f1e8" stroke="#0d0f13" stroke-width="5" transform="rotate(2 453 298)"/>
  </g>
  <circle cx="340" cy="177" r="12" fill="#ff6b6b"/>
  <circle cx="504" cy="160" r="12" fill="#39d98a"/>
  <circle cx="454" cy="251" r="12" fill="#61dafb"/>
  <path d="M323 245h66M316 275h82M487 216h70M407 313h94" stroke="#0d0f13" stroke-width="13" stroke-linecap="round" opacity="0.72"/>
  <g fill="#f4f1e8" opacity="0.18">
    <circle cx="102" cy="78" r="8"/>
    <circle cx="785" cy="118" r="12"/>
    <circle cx="770" cy="405" r="7"/>
    <circle cx="144" cy="396" r="13"/>
  </g>
</svg>
