<svg xmlns="http://www.w3.org/2000/svg" viewBox="0 0 900 520" role="img" aria-label="Xenu Depths cover art">
  <defs>
    <linearGradient id="bg" x1="0" y1="0" x2="1" y2="1">
      <stop offset="0" stop-color="#20242d"/>
      <stop offset="0.55" stop-color="#3a1e34"/>
      <stop offset="1" stop-color="#111318"/>
    </linearGradient>
    <filter id="shadow" x="-20%" y="-20%" width="140%" height="140%">
      <feDropShadow dx="0" dy="14" stdDeviation="12" flood-color="#000" flood-opacity="0.45"/>
    </filter>
  </defs>
  <rect width="900" height="520" fill="url(#bg)"/>
  <g filter="url(#shadow)">
    <path d="M230 70h440l-38 362H268z" fill="#292e39"/>
    <path d="M283 120h334v56H283zM283 202h334v56H283zM283 284h334v56H283z" fill="#171a21"/>
    <path d="M331 93h238v327H331z" fill="#20242d"/>
    <path d="M364 130h172v36H364zM364 211h172v36H364zM364 292h172v36H364z" fill="#393f4c"/>
  </g>
  <path d="M450 82v354" stroke="#f472b6" stroke-width="7" stroke-dasharray="16 18" opacity="0.65"/>
  <circle cx="450" cy="442" r="42" fill="#f472b6" opacity="0.88"/>
  <path d="M423 447c18-32 36-32 54 0M430 432h40" stroke="#111318" stroke-width="10" stroke-linecap="round" fill="none"/>
  <g fill="#39d98a">
    <circle cx="350" cy="158" r="13"/><circle cx="541" cy="235" r="13"/><circle cx="382" cy="318" r="13"/>
  </g>
  <g fill="#ff6b6b">
    <path d="M612 151l17 28h-34z"/><path d="M281 239l17 28h-34z"/><path d="M592 325l17 28h-34z"/>
  </g>
  <path d="M135 424h630" stroke="#f2b84b" stroke-width="5" stroke-linecap="round" opacity="0.42"/>
  <path d="M170 450h560" stroke="#f2b84b" stroke-width="3" stroke-linecap="round" opacity="0.28"/>
</svg>
